<!DOCTYPE svg PUBLIC "-//W3C//DTD SVG 1.1//EN" "http://www.w3.org/Graphics/SVG/1.1/DTD/svg11.dtd">

<!-- Uploaded to: SVG Repo, www.svgrepo.com, Transformed by: SVG Repo Mixer Tools -->
<svg fill="white" version="1.1" id="Layer_1" xmlns="http://www.w3.org/2000/svg" xmlns:xlink="http://www.w3.org/1999/xlink" viewBox="-51.2 -51.2 614.40 614.40" xml:space="preserve" width="50px" height="50px" transform="rotate(45)" stroke="white" stroke-width="3.072">

<g id="SVGRepo_bgCarrier" stroke-width="0"/>

<g id="SVGRepo_tracerCarrier" stroke-linecap="round" stroke-linejoin="round" stroke="#CCCCCC" stroke-width="2.048"/>

<g id="SVGRepo_iconCarrier"> <g> <g> <path d="M345.298,112.441c-15.007,0-27.217,12.21-27.217,27.217v116.237c0,15.009,12.21,27.218,27.218,27.218 c15.008,0,27.217-12.21,27.217-27.217V139.658C372.516,124.65,360.307,112.441,345.298,112.441z M356.827,255.895 c0,6.356-5.171,11.529-11.528,11.529c-6.357,0-11.529-5.171-11.529-11.528v-88.542h23.056V255.895z M356.827,151.665h-23.056 v-12.007c0-6.356,5.171-11.528,11.529-11.528c6.356,0,11.528,5.171,11.528,11.528V151.665z"/> </g> </g> <g> <g> <rect x="309.606" y="321.111" width="15.69" height="47.068"/> </g> </g> <g> <g> <rect x="332.617" y="321.111" width="15.69" height="47.068"/> </g> </g> <g> <g> <rect x="355.628" y="321.111" width="15.689" height="47.068"/> </g> </g> <g> <g> <path d="M465.455,291.239v-16.15h-15.69v38.701h15.69v-6.639c17.589,3.616,30.856,19.217,30.856,37.86v38.649h-54.913V206.055 h-60.666v15.689h44.977v162.125H294.962V221.745h14.643v-15.689h-30.333v53.619h-15.69v-7.597h-15.689v7.597h-23.011v-7.597 h-15.69v7.597h-24.057v-7.597h-15.689v7.597h-21.965v-7.597h-15.689v7.597H108.78v-7.597H93.091v7.597H70.08v-7.597H54.39v8.198 c-9.047,1.352-17.373,4.939-24.394,10.185l-5.829-5.829l-11.094,11.092l5.83,5.83c-5.346,7.154-8.96,15.666-10.252,24.914H0 v15.689h8.729c1.361,9.017,4.944,17.316,10.175,24.317l-5.83,5.83l11.094,11.092l5.829-5.829 c7.021,5.246,15.346,8.832,24.394,10.185v8.795H70.08v-8.194h23.011v8.194h15.689v-8.194h23.011v8.194h15.689v-8.194h21.965v8.194 h15.689v-8.194h24.057v8.194h15.69v-8.194h23.011v8.194h15.689v-8.194h15.69v31.205h162.125v-0.209H512v-54.339 C512,317.695,491.738,295.031,465.455,291.239z M279.273,290.778H163.171v15.689h116.102v15.689H248.94v15.69h30.333v14.817 H62.456c-21.312,0-38.651-17.339-38.651-38.651s17.339-38.649,38.651-38.649h216.817V290.778z"/> </g> </g> <g> <g> <rect x="395.375" y="237.434" width="16.735" height="15.689"/> </g> </g> <g> <g> <rect x="395.375" y="259.399" width="16.735" height="15.689"/> </g> </g> <g> <g> <path d="M62.456,322.157c-4.148,0-7.653-3.593-7.653-7.845c0-4.252,3.505-7.845,7.653-7.845h46.325v-15.689H62.456 c-12.872,0-23.343,10.558-23.343,23.534s10.472,23.534,23.343,23.534H233.25v-15.69H62.456z"/> </g> </g> <g> <g> <rect x="124.47" y="290.778" width="24.057" height="15.689"/> </g> </g> </g>

</svg>